{"title":"[ShepardTDS] Freezing Vibration Dual Audio Uncensored [720p 8-bi","uid":12888328,"size":2728826098,"categoryP":"video","categoryS":"tv_shows","magnet":"?xt=urn:btih:cd0c071df5c9593d963b75a67c5acc9842366ace&amp;dn=%5BShepardTDS%5D+Freezing+Vibration+Dual+Audio+Uncensored+%5B720p+8-bi&amp;tr=udp%3A%2F%2Ftracker.leechers-paradise.org%3A6969&amp;tr=udp%3A%2F%2Fzer0day.ch%3A1337&amp;tr=udp%3A%2F%2Fopen.demonii.com%3A1337&amp;tr=udp%3A%2F%2Ftracker.coppersurfer.tk%3A6969&amp;tr=udp%3A%2F%2Fexodus.desync.com%3A6969","seeders":0,"leechers":1,"uploader":"ShepardTDS","files":21,"time":1449079825,"description":"http://extraimago.com/images/2015/12/02/123362_front.jpg\r\n\r\nConstant Quality encoding.\r\nVariable Bit rates\r\nED and OP included\r\nBlu-Ray Source\r\nAll 6 OVAs \r\n \nhttp://extraimago.com/images/2015/12/02/sample1.jpg\r\n \nhttp://extraimago.com/images/2015/12/02/sample2.jpg\r\n\r\nGeneral\r\n\r\nFormat : Matroska\r\nFile size : 161 MiB-247 MiB\r\nDuration : 23mn 36s\r\nOverall bit rate : 955 Kbps-1,460 Kbps\r\nEncoded date : UTC 2015-12-01 12:07:14\r\nWriting application : mkvmerge v7.7.0 ('Six Voices') 32bit built on Feb 28 2015 23:23:00\r\nWriting library : libebml v1.3.1 + libmatroska v1.4.2\r\n\r\nVideo\r\nID : 1\r\nFormat : V_MPEGH/ISO/HEVC\r\nCodec ID : V_MPEGH/ISO/HEVC\r\nDuration : 23mn 36s\r\nBit rate : 552 Kbps-1,047 Kbps\r\nWidth : 1 280 pixels\r\nHeight : 720 pixels\r\nDisplay aspect ratio : 16:9\r\nFrame rate : 23.976 fps\r\nBits/(Pixel*Frame) : 0.025\r\nStream size : 93.2 MiB (58%)\r\n\r\nAudio #1\r\nID : 2\r\nFormat : AC-3\r\nFormat/Info : Audio Coding 3\r\nMode extension : CM (complete main)\r\nCodec ID : A_AC3\r\nDuration : 23mn 36s\r\nBit rate mode : Constant\r\nBit rate : 192 Kbps\r\nChannel(s) : 6 channels\r\nChannel positions : Front: L C R, Side: L R, LFE\r\nSampling rate : 48.0 KHz\r\nBit depth : 16 bits\r\nCompression mode : Lossy\r\nStream size : 32.4 MiB (20%)\r\nLanguage : English\r\n\r\nAudio #2\r\nID : 3\r\nFormat : AC-3\r\nFormat/Info : Audio Coding 3\r\nMode extension : CM (complete main)\r\nCodec ID : A_AC3\r\nDuration : 23mn 36s\r\nBit rate mode : Constant\r\nBit rate : 192 Kbps\r\nChannel(s) : 2 channels\r\nChannel positions : Front: L R\r\nSampling rate : 48.0 KHz\r\nBit depth : 16 bits\r\nCompression mode : Lossy\r\nStream size : 32.4 MiB (20%)\r\nLanguage : Japanese\r\n\r\nText #1\r\nID : 4\r\nFormat : PGS\r\nMuxing mode : zlib\r\nCodec ID : S_HDMV/PGS\r\nCodec ID/Info : The same subtitle format used on BDs/HD-DVDs\r\nLanguage : English\r\n\r\nText #2\r\nID : 5\r\nFormat : PGS\r\nMuxing mode : zlib\r\nCodec ID : S_HDMV/PGS\r\nCodec ID/Info : The same subtitle format used on BDs/HD-DVDs\r\nLanguage : English\r\n\r\nMenu\r\n00:00:00.000 : en:Chapter 1\r\n00:01:35.303 : en:Chapter 2\r\n00:03:05.310 : en:Chapter 3\r\n00:12:33.336 : en:Chapter 4\r\n00:21:55.314 : en:Chapter 5\r\n00:23:25.237 : en:Chapter 6","torrent":{"xt":"urn:btih:cd0c071df5c9593d963b75a67c5acc9842366ace","amp;dn":"%5BShepardTDS%5D+Freezing+Vibration+Dual+Audio+Uncensored+%5B720p+8-bi","amp;tr":["udp%3A%2F%2Ftracker.leechers-paradise.org%3A6969","udp%3A%2F%2Fzer0day.ch%3A1337","udp%3A%2F%2Fopen.demonii.com%3A1337","udp%3A%2F%2Ftracker.coppersurfer.tk%3A6969","udp%3A%2F%2Fexodus.desync.com%3A6969"],"infoHash":"cd0c071df5c9593d963b75a67c5acc9842366ace","infoHashBuffer":{"type":"Buffer","data":[205,12,7,29,245,201,89,61,150,59,117,166,124,90,204,152,66,54,106,206]},"announce":[],"urlList":[]}}